<?xml version="1.0" encoding="UTF-8" standalone="no"?>
<!DOCTYPE svg PUBLIC "-//W3C//DTD SVG 1.1//EN" "http://www.w3.org/Graphics/SVG/1.1/DTD/svg11.dtd">
<svg width="100%" height="100%" viewBox="0 0 1000 1000" version="1.1" xmlns="http://www.w3.org/2000/svg" xmlns:xlink="http://www.w3.org/1999/xlink" xml:space="preserve" xmlns:serif="http://www.serif.com/" style="fill-rule:evenodd;clip-rule:evenodd;stroke-linejoin:round;stroke-miterlimit:2;">
    <circle cx="500" cy="500" r="500" style="fill:rgb(11,53,37);"/>
    <g transform="matrix(3.155357,0,0,4.05345,108.876138,306.321728)">
        <path d="M180.47,0C203.02,0.947 210.471,10.354 225.288,25.23L247.911,47.836L217.215,78.597C213.082,82.7 209.867,85.829 204.804,88.899C189.923,97.846 171.304,97.778 156.488,88.723C148.793,83.982 138.319,72.573 131.528,65.761L100.919,35.061C96.263,30.392 89.185,22.748 83.834,19.464C78.797,16.368 73.001,14.735 67.093,14.739C52.131,14.808 44.938,23.489 35.261,33.243L20.69,47.824C28.102,55.352 35.57,62.82 43.094,70.233C55.891,82.76 73.421,85.028 87.813,73.294C90.454,71.146 92.726,68.663 95.088,66.211C86.497,57.564 75.406,45.453 65.867,38.263C60.401,34.139 53.769,35.489 47.57,37.067C53.357,31.125 58.077,26.696 67.016,26.606C70.99,26.542 74.9,27.627 78.27,29.732C82.677,32.437 89.982,40.321 93.879,44.235C101.18,51.613 108.528,58.94 115.919,66.22C99.847,82.494 90.638,95.291 66.171,95.458C44.732,94.94 35.326,83.206 21.478,69.328L0,47.806C7.43,40.488 14.812,33.123 22.151,25.715C35.84,11.991 45.563,0.15 67.003,0.017C75.509,-0.017 83.86,2.306 91.123,6.727C99.182,11.554 110.436,23.794 117.45,30.829L153.629,67.15C161.787,75.287 168.895,81.011 181.16,80.938C195.484,80.852 202.995,72.123 212.216,62.88L227.221,47.802L212.066,32.587C202.862,23.357 195.428,14.804 181.268,14.731C168.153,14.662 161.457,20.771 152.767,29.243C161.045,37.796 173.302,50.816 182.691,57.71C187.84,61.487 194.588,60.025 200.392,58.46C199.929,58.962 199.458,59.459 198.986,59.952C193.902,65.238 188.547,69.092 180.865,69.097C176.886,69.088 172.989,67.952 169.628,65.825C165.174,63.06 157.941,55.292 153.886,51.219L132.052,29.299C148.124,13.235 156.394,1.273 180.47,0Z" style="fill:white;fill-rule:nonzero;"/>
    </g>
</svg>
