<?xml version="1.0" encoding="UTF-8" standalone="no"?><!DOCTYPE svg PUBLIC "-//W3C//DTD SVG 1.1//EN" "http://www.w3.org/Graphics/SVG/1.1/DTD/svg11.dtd"><svg width="100%" height="100%" viewBox="0 0 4167 4167" version="1.1" xmlns="http://www.w3.org/2000/svg" xmlns:xlink="http://www.w3.org/1999/xlink" xml:space="preserve" xmlns:serif="http://www.serif.com/" style="fill-rule:evenodd;clip-rule:evenodd;stroke-linejoin:round;stroke-miterlimit:2;"><circle cx="2083.333" cy="2083.333" r="2083.333" style="fill:#0b3525;"/><g><path d="M2826.348,1276.341c296.472,15.994 394.433,174.873 589.237,426.119l297.432,381.801l-403.57,519.534c-54.338,69.297 -96.607,122.144 -163.171,173.994c-195.645,151.109 -440.435,149.961 -635.226,-2.973c-101.169,-80.073 -238.874,-272.763 -328.157,-387.814l-402.426,-518.504c-61.214,-78.856 -154.271,-207.959 -224.622,-263.424c-66.223,-52.29 -142.425,-79.87 -220.099,-79.802c-196.71,1.165 -291.279,147.782 -418.506,312.521l-191.57,246.264c97.448,127.143 195.632,253.273 294.553,378.474c168.246,211.573 398.719,249.878 587.935,51.698c34.722,-36.278 64.593,-78.215 95.647,-119.627c-112.949,-146.042 -258.766,-350.59 -384.178,-472.024c-71.863,-69.652 -159.056,-46.851 -240.557,-20.2c76.084,-100.357 138.139,-175.16 255.663,-176.68c52.247,-1.081 103.653,17.244 147.96,52.796c57.94,45.686 153.981,178.842 205.217,244.947c95.989,124.61 192.595,248.358 289.767,371.313c-211.304,274.858 -332.377,490.991 -654.053,493.812c-281.865,-8.749 -405.529,-206.929 -587.593,-441.319l-282.378,-363.493c97.685,-123.596 194.738,-247.987 291.226,-373.103c179.974,-231.79 307.805,-431.777 589.684,-434.023c111.831,-0.574 221.624,38.66 317.113,113.328c105.954,81.525 253.914,288.251 346.13,407.068l475.657,613.439c107.256,137.429 200.707,234.104 361.959,232.871c188.322,-1.452 287.072,-148.88 408.303,-304.988l197.276,-254.658l-199.248,-256.972c-121.008,-155.889 -218.745,-300.344 -404.911,-301.577c-172.427,-1.165 -260.462,102.012 -374.712,245.099c108.834,144.455 269.98,364.354 393.42,480.79c67.696,63.791 156.414,39.099 232.721,12.667c-6.087,8.478 -12.28,16.872 -18.485,25.199c-66.841,89.277 -137.245,154.369 -238.243,154.453c-52.313,-0.152 -103.548,-19.338 -147.736,-55.262c-58.558,-46.699 -153.653,-177.896 -206.965,-246.686l-287.059,-370.215c211.304,-271.311 320.032,-473.342 636.567,-494.842Z" style="fill:#fff;fill-rule:nonzero;"/></g></svg>