<?xml version="1.0" encoding="UTF-8" standalone="no"?><!DOCTYPE svg PUBLIC "-//W3C//DTD SVG 1.1//EN" "http://www.w3.org/Graphics/SVG/1.1/DTD/svg11.dtd"><svg width="100%" height="100%" viewBox="0 0 1000 1000" version="1.1" xmlns="http://www.w3.org/2000/svg" xmlns:xlink="http://www.w3.org/1999/xlink" xml:space="preserve" xmlns:serif="http://www.serif.com/" style="fill-rule:evenodd;clip-rule:evenodd;stroke-linejoin:round;stroke-miterlimit:2;"><circle cx="500" cy="500" r="500" style="fill:#0b3525;"/><g><path d="M678.323,306.322c71.153,3.839 94.664,41.969 141.417,102.269l71.384,91.632l-96.857,124.688c-13.041,16.631 -23.186,29.315 -39.161,41.759c-46.955,36.266 -105.704,35.991 -152.454,-0.713c-24.28,-19.217 -57.33,-65.463 -78.758,-93.075l-96.582,-124.441c-14.691,-18.926 -37.025,-49.91 -53.909,-63.222c-15.894,-12.549 -34.182,-19.169 -52.824,-19.153c-47.21,0.28 -69.907,35.468 -100.441,75.005l-45.977,59.103c23.388,30.514 46.952,60.786 70.693,90.834c40.379,50.778 95.693,59.971 141.104,12.408c8.333,-8.707 15.502,-18.772 22.955,-28.711c-27.108,-35.05 -62.104,-84.142 -92.203,-113.286c-17.247,-16.716 -38.174,-11.244 -57.734,-4.848c18.26,-24.086 33.153,-42.038 61.359,-42.403c12.539,-0.259 24.877,4.139 35.51,12.671c13.906,10.965 36.956,42.922 49.252,58.787c23.037,29.906 46.223,59.606 69.544,89.115c-50.713,65.966 -79.771,117.838 -156.973,118.515c-67.648,-2.1 -97.327,-49.663 -141.022,-105.917l-67.771,-87.238c23.444,-29.663 46.737,-59.517 69.894,-89.545c43.194,-55.63 73.873,-103.626 141.524,-104.166c26.839,-0.138 53.19,9.278 76.107,27.199c25.429,19.566 60.939,69.18 83.071,97.696l114.158,147.225c25.741,32.983 48.17,56.185 86.87,55.889c45.197,-0.349 68.897,-35.731 97.993,-73.197l47.346,-61.118l-47.819,-61.673c-29.042,-37.413 -52.499,-72.083 -97.179,-72.378c-41.383,-0.28 -62.511,24.483 -89.931,58.824c26.12,34.669 64.795,87.445 94.421,115.39c16.247,15.31 37.539,9.384 55.853,3.04c-1.461,2.035 -2.947,4.049 -4.436,6.048c-16.042,21.427 -32.939,37.049 -57.178,37.069c-12.555,-0.036 -24.852,-4.641 -35.457,-13.263c-14.054,-11.208 -36.877,-42.695 -49.672,-59.205l-68.894,-88.852c50.713,-65.115 76.808,-113.602 152.776,-118.762Z" style="fill:#fff;fill-rule:nonzero;"/></g></svg>